<svg xmlns="http://www.w3.org/2000/svg" fill="none" viewBox="0 0 30 30">
    <path stroke="#D8564D"
          d="M.5 15.01C.5 7 6.991.51 15 .51s14.5 6.492 14.5 14.5c0 8.007-6.491 14.5-14.5 14.5S.5 23.016.5 15.01Z"/>
    <path fill="#D8564D"
          d="M13.391 14.632s1.573-.12 1.573-2.003c0-1.881-1.067-2.809-2.698-2.809l-5.588-.008v10.397h5.718s2.859.09 2.859-3.12c0 0 .21-2.457-1.864-2.457ZM8.757 11.37h2.86s.978.016.978 1.284c0 1.315-.979 1.315-.979 1.315H8.758v-2.6Zm3.12 7.278h-3.12v-3.12h3.12s1.558.017 1.558 1.56c0 1.543-1.335 1.56-1.559 1.56ZM19.674 12.41c-3.906 0-3.9 3.9-3.9 3.9s-.259 3.899 3.9 3.899c0 0 3.638 0 3.638-3.12h-2.08s0 1.56-1.558 1.56c0 0-1.56 0-1.56-2.08h5.2c0-1.04 0-4.158-3.64-4.158Zm-1.56 3.12s-.034-1.56 1.56-1.56c1.593 0 1.559 1.56 1.559 1.56h-3.118ZM21.753 10.85h-4.16v1.04h4.16v-1.04Z"/>
</svg>