<svg id="Calque_1" data-name="Calque 1" xmlns="http://www.w3.org/2000/svg" viewBox="0 0 407.49 150.86"><defs><style>.cls-1{fill:#1d1d1b;}</style></defs><path class="cls-1" d="M177.74,116.21H81l-8,12.06c-2.42,3.48-8,12.06-8,17.95,0,4.56,2.95,8.31,12.59,8.31,3.48,0,5.63,1.07,5.63,2.41s-1.88,2.68-5.36,2.68c-11.25,0-22.24-.54-33-.54-11.25,0-22.78.54-34,.54-3.49,0-5.36-1.34-5.36-2.68,0-1.07,1.87-2.41,5.36-2.41,16.34-.27,24.38-6.7,41.53-31.62l66.73-97.54c-3.76-6.43-14.21-10.18-20.91-10.18-3.48,0-5.62-1.34-5.62-2.68s2.14-2.41,5.36-2.41h34.83c16.62,0,24.12,4.28,31.09,15l64,96.47c8.31,12.59,23.31,33,37,33,3.48,0,5.36,1.34,5.36,2.95,0,1.34-1.88,2.14-5.36,2.14-13.67,0-27.33-.54-41-.54-13.93,0-27.87.54-42.07.54-3.48,0-5.09-.8-5.09-2.41,0-1.07,1.61-2.68,5.09-2.68,5.63,0,12.86-1.34,12.86-8,0-3.22-1.61-7.24-8.84-18.22Zm-86.82-15h76.91L129.51,42.79Z" transform="translate(-5.44 -10.1)"/><path class="cls-1" d="M179.9,15.45c-4-.26-7.24-.53-7.24-2.67,0-1.88,2.68-2.68,6.43-2.68,17.15,0,30.82.53,49,.53,16.61,0,32.42-.53,57.88-.53,28.94,0,86.55.53,86.55,42.6,0,26-20.63,36.71-44.21,41.27,5.89,2.41,10.18,7.23,16.08,14.74,23.31,31.08,39.66,45.82,63,45.82,7.5,0,7,4.55.8,5.36-5.09.53-12.06,1.07-28.4,1.07-37.25,0-49-.27-91.11-57.08-5.63-6.43-12.6-7-17.42-7H251.44c-3.21,0-3.75.8-3.75,4v24.65c0,26.26,13.93,28.14,26.8,28.67,4,.27,7.23.54,7.23,2.68,0,1.88-2.68,2.68-6.43,2.68-16.61,0-32.16-.54-47.69-.54s-32.7.54-49.31.54c-3.75,0-6.43-.8-6.43-2.68,0-2.14,3.21-2.41,7.23-2.68,12.6-.8,26.8-1.87,26.8-28.67V43.86C205.89,17.6,192.76,16,179.9,15.45ZM288.15,85.13C309.59,85.13,327,74.94,327,52.7c0-25.45-17.42-30.81-38.86-30.81H270.47c-21.71,0-22.78.26-22.78,22V81.64c0,2.41.8,3.49,3.75,3.49Z" transform="translate(-5.44 -10.1)"/></svg>