<svg xmlns="http://www.w3.org/2000/svg" fill="none" viewBox="0 0 30 30"><path fill="#D8574D" d="M15 30C6.73 30 0 23.27 0 15S6.73 0 15 0s15 6.73 15 15-6.73 15-15 15Zm0-29C7.28 1 1 7.28 1 15s6.285 14 14 14 14-6.285 14-14S22.72 1 15 1Z"/><path fill="#D8574D" d="M14.998 11.376c-2.078.015-3.698 1.669-3.686 3.764a3.738 3.738 0 0 0 3.765 3.709c2.027 0 3.704-1.72 3.7-3.79-.003-2.052-1.693-3.699-3.78-3.683Zm.04 6.116a2.397 2.397 0 1 1 0-4.795c1.367-.007 2.402 1.052 2.388 2.441-.014 1.353-1.032 2.355-2.384 2.354h-.003Z"/><path fill="#D8574D" d="M22.623 12.216c.007-2.776-1.933-4.761-4.7-4.78-1.968-.013-3.933-.005-5.901 0-2.553.017-4.55 1.913-4.604 4.453-.05 2.073-.05 4.147 0 6.222.059 2.512 2.02 4.412 4.526 4.452 1.01.016 2.021 0 3.032 0h2.868c2.837-.01 4.768-1.937 4.78-4.782.005-1.853-.005-3.708-.001-5.565Zm-1.454 5.793c-.01 1.743-1.236 3.09-2.987 3.154-2.099.07-4.203.066-6.302.01-1.74-.045-2.988-1.394-3.02-3.13-.016-1.03 0-2.071 0-3.107 0-.983-.009-1.963 0-2.945.02-1.742 1.237-3.09 2.988-3.15a86.273 86.273 0 0 1 6.302 0c1.82.068 3.012 1.401 3.021 3.201.01 1.988.01 3.977-.002 5.967Z"/><path fill="#D8574D" d="M19.15 11.717a.67.67 0 1 0 0-1.342.67.67 0 0 0 0 1.342Z"/></svg>