<svg xmlns="http://www.w3.org/2000/svg" fill="none" viewBox="0 0 30 30">
    <path stroke="#D8564D"
          d="M.5 15C.5 6.991 6.991.5 15 .5S29.5 6.991 29.5 15c0 8.008-6.491 14.5-14.5 14.5S.5 23.008.5 15Z"/>
    <path fill="#D8564D"
          d="M22.776 21.508v-5.753c0-3.083-1.646-4.517-3.84-4.517-1.771 0-2.565.974-3.006 1.657v-1.422h-3.336c.044.942 0 10.035 0 10.035h3.336v-5.604c0-.3.021-.6.11-.813.24-.6.789-1.22 1.71-1.22 1.208 0 1.69.92 1.69 2.269v5.37l3.335-.002ZM9.08 10.103c1.162 0 1.887-.771 1.887-1.734-.022-.984-.725-1.733-1.866-1.733-1.14 0-1.886.749-1.886 1.733 0 .964.724 1.734 1.844 1.734h.02Zm1.667 11.405V11.473H7.413v10.035h3.334Z"/>
</svg>